<svg xmlns="http://www.w3.org/2000/svg" width="22.065" height="25.097" viewBox="0 0 22.065 25.097">
  <g id="chrono" transform="translate(0)" opacity="0.999">
    <path id="Tracé_22" data-name="Tracé 22" d="M58.7,115.064a9.207,9.207,0,1,1,9.629-9.2,9.42,9.42,0,0,1-9.629,9.2Zm0-19.735a10.549,10.549,0,1,0,11.032,10.539A10.794,10.794,0,0,0,58.7,95.329Z" transform="translate(-47.664 -91.308)" fill="rgba(31,15,181,0.18)"/>
    <path id="Tracé_23" data-name="Tracé 23" d="M225.547,0h-5.119a.721.721,0,0,0-.723.723v.6a.726.726,0,0,0,.723.728h.253v.634a.434.434,0,0,0,.546.434h0a11.974,11.974,0,0,1,3.451-.008h.006a.481.481,0,0,0,.609-.476V2.047h.253a.725.725,0,0,0,.723-.728v-.6A.721.721,0,0,0,225.547,0Z" transform="translate(-211.956)" fill="rgba(31,15,181,0.18)"/>
    <path id="Tracé_24" data-name="Tracé 24" d="M416.091,66.723a.507.507,0,0,0,.8-.115h0l.439-.627a.332.332,0,0,0-.08-.475L414,63.235h0a.276.276,0,0,0-.4.024l-.057.084-.476.68s-.3.468.115.684h0a11.978,11.978,0,0,1,2.908,2.017Z" transform="translate(-396.564 -60.497)" fill="rgba(31,15,181,0.18)"/>
    <path id="Tracé_25" data-name="Tracé 25" d="M305.027,173.245a7.336,7.336,0,0,0-6.62-6.787l-.012,0-.079-.009c-.722-.121-.786.427-.79.6v6.168a.723.723,0,0,0,.76.756c1,0,3.025-.006,6.09,0a.63.63,0,0,0,.651-.723Z" transform="translate(-286 -159.41)" fill="rgba(31,15,181,0.18)"/>
  </g>
</svg>