<svg id="chrono" xmlns="http://www.w3.org/2000/svg" width="25.219" height="28.685" viewBox="0 0 25.219 28.685">
  <path id="Tracé_22" data-name="Tracé 22" d="M60.273,117.885a10.523,10.523,0,1,1,11-10.511,10.767,10.767,0,0,1-11,10.511Zm0-22.556c-6.964,0-12.609,5.392-12.609,12.045s5.646,12.044,12.609,12.044,12.609-5.393,12.609-12.044S67.237,95.329,60.273,95.329Z" transform="translate(-47.664 -90.734)" fill="#1f0fb5"/>
  <path id="Tracé_23" data-name="Tracé 23" d="M226.382,0h-5.85a.824.824,0,0,0-.826.826v.682a.83.83,0,0,0,.826.833h.289v.724a.5.5,0,0,0,.624.5h0a13.685,13.685,0,0,1,3.944-.009h.007a.55.55,0,0,0,.7-.544V2.34h.29a.829.829,0,0,0,.826-.832V.826A.824.824,0,0,0,226.382,0Z" transform="translate(-210.848)" fill="#1f0fb5"/>
  <path id="Tracé_24" data-name="Tracé 24" d="M416.539,67.233a.58.58,0,0,0,.915-.131h0l.5-.717a.38.38,0,0,0-.091-.543l-3.713-2.595h0a.316.316,0,0,0-.461.027l-.065.1-.544.778s-.348.535.131.782h0a13.69,13.69,0,0,1,3.324,2.3Z" transform="translate(-394.22 -60.116)" fill="#1f0fb5"/>
  <path id="Tracé_25" data-name="Tracé 25" d="M306.1,174.219a8.384,8.384,0,0,0-7.566-7.757l-.014,0-.091-.011c-.825-.138-.9.488-.9.68v7.05a.827.827,0,0,0,.869.864c1.147,0,3.457-.007,6.96,0a.721.721,0,0,0,.745-.826Z" transform="translate(-284.352 -158.406)" fill="#1f0fb5"/>
</svg>
